<?xml version="1.0" encoding="utf-8"?>
<!-- Generator: Adobe Illustrator 25.2.1, SVG Export Plug-In . SVG Version: 6.00 Build 0)  -->
<svg version="1.1" id="Camada_1" xmlns="http://www.w3.org/2000/svg" xmlns:xlink="http://www.w3.org/1999/xlink" x="0px" y="0px"
	 viewBox="0 0 1000 1000" style="enable-background:new 0 0 1000 1000;" xml:space="preserve">
<style type="text/css">
	.st0{fill:#060606;}
	.st1{fill:#FEFEFE;}
</style>
<g>
	<path class="st0" d="M751.3,394.7c7.9,22.4,15.4,44.5,23.4,66.3c3.7,10,4.3,19.9,2.9,30.4c-2.9,21.1-5.4,42.2-8.1,63.2
		c-1.8,14.1-3.2,28.2-4.8,42.3c-1.3,11.7-2.2,23.4-5.3,34.8c-3.3,12.5-10.4,23.3-16.2,34.6c-4.2,8.1-9.1,15.8-13.3,23.8
		c-4.3,8.3-8.9,16.5-13.7,24.6c-0.9,1.5-2.1,3.3-0.4,5c5.7,5.9,7.3,13.8,10.3,21c6.8,16.3,13.7,32.5,20.7,48.7
		c1.2,2.9,1.6,5.8,1.7,8.9c0.1,5-0.7,10.1,1.8,14.9c1.2,2.3-1.1,4.7-0.9,7.4c1.4,16.1,2.2,32.3,3.5,48.4
		c1.2,14.2-4.1,26.3-11.5,37.8c-3.8,5.9-8.6,11.8-10.7,18c-5.3,15.1-15.6,27.4-21.4,42.1c-1.3,3.2-3.5,5.7-6.5,7.5
		c-7.6,4.5-15.1,9-22.7,13.4c-4.6,2.7-10.6,2.7-14.4,7.2c-1.3,1.6-3.6,0.4-5.1-0.5c-4-2.5-8.3-4.8-11.5-8.2c-3.5-3.6-2-8.7-1.3-13.2
		c0.3-2.1,0.2-3.5-0.8-5.4c-2.8-5.5-1.8-11.7-2.3-17.6c-1.5-19.8-2.2-39.7-3.8-59.5c-1-12.9-6.3-24.9-9.5-37.4
		c-1.7-6.6-4.2-12.9-6.1-19.4c-1-3.4-2-3.2-4.1-1c-10.6,11-21.4,21.8-31.8,32.9c-7.1,7.6-15.5,12.3-25.5,15.1
		c-13.9,3.8-27.5,8.4-41.2,12.8c-1.2,0.4-2.4,0.5-3.6,0.5c-13.1,0-26.2,0-39.3,0c-3.8,0-7.1-1.6-10.5-2.8c-13.5-5-27.5-8.5-41-13.7
		c-6.9-2.6-12.1-7.2-17.1-12.4c-8.2-8.4-16.5-16.9-24.8-25.2c-2.7-2.7-5.9-5-8.4-7.9c-2.4-2.8-3.6-1.4-4.1,1
		c-3,13.4-7.6,26.3-11.5,39.4c-4.5,15-4.1,30.5-5.3,45.8c-1.2,14.4-1.1,29-3.1,43.3c-0.8,6.2-1.8,12.1-0.7,18.4
		c0.5,2.6-0.6,4.9-3.2,6.4c-1.9,1.2-3.6,2.8-5.3,4.3c-4.9,4.6-10.6,5.6-16.3,0.9c-3.9-3.2-9.7-4-14.2-6.9c-6.3-4-12.3-8.4-19.2-11.6
		c-1.9-0.9-2.9-2.9-3.7-4.6c-5.8-12.4-14.3-23.4-19.3-36.1c-3.6-9.1-9.8-16.6-13.5-25.5c-1.9-4.4-4.5-8.6-7.3-12.6
		c-4.7-6.7-5-14.3-4.7-21.7c0.9-20.9,2.7-41.8,4.1-62.8c0.1-1.2,0.3-2.4-0.5-3.5c-1.2-1.8-1.1-3.1,0.3-5.2c1.8-2.7,0.2-6.6,1.5-9.8
		c0.4-1.1,0.4-2.3,1-3.5c9.6-20.1,17.7-40.7,26.2-61.3c1-2.4,2.2-4.9,4-6.5c2.5-2.3,2.3-4.2,0.9-6.8c-8.3-15.1-16.4-30.3-25-45.2
		c-6.9-11.9-14.7-23.4-18.3-36.9c-2.8-10.6-2.9-21.6-4.3-32.4c-4.6-36.1-8.9-72.3-13.7-108.4c-1.3-10-0.8-19.5,2.8-29
		c7-19,13.7-38.1,20.4-57.1c1.2-3.5,2-7.1,3-10.6c-1.3-0.8-2.3-0.4-3.5,0.1c-12,5.3-23.9,11-36.2,15.5
		c-12.7,4.7-20.2,14.8-28.1,24.7c-4.9,6.2-10.2,12-15.3,18c-14.2,16.7-28.5,33.3-42.6,50c-10.7,12.7-20.8,26-32.1,38.1
		c-5.3,5.7-11.2,10.9-16.4,17c-6.3,7.4-15.2,5.5-23.2,3.3c-4.8-1.3-5.2-6.2-4.8-10.4c0.3-2.7-0.2-4.9-1.4-7.2
		c-2.7-5.3-2.1-11.4-3.4-17.1c-4.1-18.3,1.2-36.1,3.3-54c1-8.7,2.5-17.4,3.6-26.1c0.5-4,0.7-8,3-11.5c0.4-0.7,0.8-1.4,0.5-2.5
		c-1.7-8.1,0.9-15.9,2-23.8c0.6-4.9,3.7-9.1,6.3-12.9c5.3-7.5,8.9-15.9,13.5-23.8c8.3-14.1,16.4-28.4,24-42.9
		c2.7-5.1,7.2-7.4,11.6-9.8c14.6-7.8,27.3-18.3,40.9-27.5c7.5-5,15.8-8.7,22.5-15c2.2-2.1,5.1-2.7,8-2.6c26.5,0.3,53,1.3,79.5,1.2
		c3.8,0,7.9,0.9,10.2,5c0.5,0.9,1.5,1.5,2.5,2c11.3,5.2,21.2,12.6,31.4,19.6c1.4,0.9,1.9,0.4,3.1-0.3c12-7.8,24-15.6,36.1-23.2
		c22.1-14.1,44.1-28.3,66.3-42.1c5.2-3.2,11.6-3.2,17.6-3.5c0.4,0,0.9,0.4,1.3,0.4c3.5,0.3,7.4,1.6,10.3-0.6c3.4-2.5,0.2-6-0.4-8.9
		c-3.4-17.2-7.6-34.2-12.7-50.8c-6.4-20.9-5.3-42-6.6-63.1c-0.5-7.2,4.5-13.1,6.9-19.6c1.7-4.7,3.1-9.6,6-14.1
		c1.5-2.4,0.3-7.2,0.8-10.9c0.3-2.6,0.2-5.2,0.3-7.9c0.1-4.8,1.6-9,5.5-12.2c4.8-4,7.4-10.2,13.5-12.8c1.1-0.5,2.2-1.4,3.3-1.5
		c11.7-0.7,17-10.3,23.8-17.4c11.1-11.5,25.7-13.3,38.4-3c5.4,4.4,9.1,10.2,13.8,15.1c1.8,1.9,3.5,2.9,6,3.4
		c13.8,2.7,22.6,11.6,27.9,23.9c1.7,3.9,2,8.7,1.6,13c-0.7,7.4,2.3,13.6,4.9,20.1c1.8,4.4,3.4,8.8,5.5,13c4.3,8.6,3,17.7,2.6,26.7
		c-0.7,13.2,0.2,26.8-3.8,39.5c-5.3,16.9-8.1,34.5-13.3,51.4c-1.4,4.5-2.1,9.3-3.2,13.9c-0.5,2.1-0.4,3.2,2.2,3
		c4-0.3,7.9,0,11.9-0.6c5.8-0.8,11.8,0.3,16.6,3.4c22.6,14.1,44.9,28.8,67.5,43c10.9,6.9,21.4,14.5,32.5,21.1c2,1.2,3.3,1.4,5.7-0.3
		c7.8-5.5,16.1-10.4,24.3-15.4c3.1-1.9,6.5-3.2,9.1-6c1.6-1.8,4.2-2.5,7-2.7c16.8-1.1,33.6-0.5,50.4-0.9c9.7-0.2,19.4-0.6,29.1-0.8
		c5.1-0.1,9.3,1.9,13.2,5.2c8.9,7.3,19.3,12.4,28.6,19.1c11.8,8.6,24.3,16.1,36.5,24.2c6,4,9.4,10.8,12.6,17.2
		c5.6,11.5,13,22,18.2,33.6c4.4,9.8,11.1,18,16,27.4c4.9,9.4,6.8,19.6,5.5,30.3c-0.1,1-0.3,2.3,0.1,3.2c5.2,11.4,4.1,23.9,6.4,35.8
		c2.4,12.1,3.8,24.3,5.4,36.5c1,7.3-1.4,14.4-2.1,21.5c-0.7,6.7-0.9,13.6-4.7,19.9c-1.5,2.5-0.1,6.9,0.1,10.4c0.2,5-1.1,6-5.8,4.2
		c-3.4-1.3-7-0.8-10.4-0.2c-6,0.9-10.2-1.4-13.2-6.2c-3.1-5-5.6-9.9-11.7-12.9c-4.5-2.2-7.4-7.9-10.9-12.2
		c-11.8-14.3-23.7-28.4-35.9-42.4c-11-12.6-21.6-25.4-32.4-38.2c-8.8-10.4-17.5-20.9-26.3-31.4c-2.3-2.8-5.1-4.7-8.4-6.2
		c-12.6-5.5-25.2-11.1-37.8-16.5C756.9,395.4,754.3,394.4,751.3,394.7z M338,780.6L338,780.6c0.1,3,1.7,5.1,4.7,6
		c5.2,4.6,8.9,10.4,13,15.8c5.8,7.4,13,13.4,19.1,20.6c3.2,3.8,6.3,8.4,11.5,10.2c6.3,4.1,11.6,9.3,16.5,14.9
		c11.7,13.5,24.2,25.6,42.7,29.2c4.8,0.9,9.5,2.7,14,4.5c11.8,4.9,24,6.9,36.8,6.1c6.8-0.4,13.6,0,20.3-0.1c1.7,0,3.3-0.1,5-0.5
		c12.3-3.1,24.1-8,36.4-11.1c13.4-3.3,23.8-10.8,32.7-20.7c6.8-7.5,13.5-15,21.1-21.7c1,3.7,2.2,0.5,2.8-0.1
		c7.2-6.9,13.9-14.3,20.8-21.5c7.4-7.7,13.1-16.9,20.6-24.5c0.4-0.4,0.3-1.2,0.4-1.7c3.1,0.6,4-2,5.1-3.8c1.3-2.2,3-4,4.8-5.4
		c14.3-10.9,22.9-26,30.8-41.6l0,0c1.2-0.2,0.8-1.3,1.2-2c0.5-0.3,1.3-0.4,1.5-0.8c2.2-5.2,5.9-9.1,9.7-13.1
		c2.2-2.3,2.1-6.1,4.1-8.8c0.6-0.9-0.3-2-1.5-2.3c9.4-14.8,16.5-30.9,25.6-45.9c2.2-3.6,4.6-7.1,5.7-11.3c4.7-1,5.6-2.4,3.9-6.4
		c4.6-8.1,6.9-16.9,8.2-26.1c1.9,1.9,2.4,0.4,2.7-1.2c0.9-4.1-1-7.8-1.7-11.6c0.2-0.2,0.6-0.4,0.6-0.6c0.8-12,2.4-23.8,4-35.7
		c1.8-13.8,3.4-27.7,5.1-41.6c2.1-2,5.2-3.9,0.8-6.7c1.4-11.3,2.8-22.6,4.4-33.9c0.8-5.5,1.2-11.2-0.4-16.4
		c-4.5-14.7-9.8-29.1-15.4-43.4c0.3-1.3,0.7-2.6,0.8-3.9c0.1-2.5,0-5-3.6-5c-2.6-8.7-6.9-16.8-8.4-25.9c1.5,0.1,2.8-0.2,3.1-1.9
		c0.3-1.5-1-2.2-1.9-2.8c-1.2-0.8-2.7-1.3-4.1-1.9c-0.1-0.5,0.3-1.2-0.7-0.9l0.1,0c0.3-2.8-1-5.3-2-7.8c-3.2-8.1-6.8-16.1-7.6-25
		c-0.1-1-0.5-1.8-1.1-2.4c-2.5-2.7-3.6-6-4.5-9.4c-2.2-8.9-7.4-15.3-15.3-20.1c-11.9-7.2-23.5-15-35.3-22.6
		c-0.2-4.4-3.3-4.5-6.5-4.4c-6.2-4-12.3-8.1-18.6-12.1c-17.6-11.3-35.2-22.5-52.7-33.8c-0.9-1.4-1.7-2.8-2.8-4.1
		c-1.7-2-3.5-4.3-6.6-1.8c-2.1-0.1-3.6-1.9-5.9-2c-11.8,0-23.5,0.1-35.3-0.8c-12.4-1-24.7,0.6-37.1,0.9c-3.4-2.7-7.3-2.8-11.3-3
		c-3.5-0.2-5.5,2.2-8.3,2.9c-9.3-0.4-18.6,0.3-28-0.7c-5.7-0.6-11.7-2.2-17.3-0.9c-4.7,1.1-9.3,1.9-13.9,1.5c-6.8-0.7-13,1-19.3,2.9
		c-3-2.5-4.8-0.2-6.6,1.8c-1.1,1.2-1.9,2.7-2.8,4.1c-23.8,15.3-47.6,30.6-71.4,45.8c-3.8-1.9-5.1,0.2-5.5,3.6
		c-9.5,7-20,12.3-29.9,18.7c-4.6,3-9.6,5.2-13.7,9.2c-7.1,6.9-8.2,16.8-11.2,25.2c-3.2,8.9-5.6,18.5-8.3,27.8
		c-0.7,2.6-3.9,4-3.5,7.2c-1.5,0.7-3.1,1.2-3.8,2.9c-0.7,1.6-1.7,3.2,1.1,3.7c-2.4,9.1-4.8,18.2-8.6,26.8c-2.2-0.1-3.6,0.7-3.6,3.1
		c0,1.8,0.1,3.7,0.1,5.5c-0.2,0.9-0.3,1.8-0.6,2.6c-4.3,12.3-8.6,24.7-12.8,37c-1,3-2.7,6-2.4,9.2c1.3,14.9,3.3,29.6,5.6,44.4
		c-3.2,2.5-2.9,4.7,0.7,6.5c0.9,7,1.8,14,2.6,21c1.4,11.6,2.7,23.2,4.2,34.8c0.8,6.7,1.8,13.5,2.7,20.2c0.1,1.7-0.4,3.2-1.2,4.7
		c-1.9,3.8-0.6,8.6,2.2,10c1.4,8.8,2.8,17.7,7.6,25.5c-1.2,3.9,0.2,6,4.5,6.9c3.7,9,9.6,16.7,14,25.4c5.9,11.8,12.7,23.1,19.1,34.6
		c-2.3,0.8-1.4,2.2-0.8,3.7c2.8,8.3,10.4,13.5,14.1,21.3c0.1,0.2,0.6,0.1,0.9,0.2c-0.3,1,0.1,1.7,0.8,2.4l0.1,0.3l0.3,0.1
		c7.8,15.8,17.9,29.9,32,40.8l-0.1-0.1C337,780.2,337.4,780.5,338,780.6z M83.5,538.6c1.4-0.1,2.1-1.3,2.8-2.1
		c4.8-5.9,9.2-12.3,14.4-17.8c10-10.7,18.7-22.3,28.5-33.2c11.4-12.7,22.3-26,33.3-39.1c6.1-7.2,12.6-14.1,18.2-21.8
		c4.5-6.1,8.7-12.6,15.9-15.9c17.5-8,34.8-16.4,53.1-22.5c1.2-0.4,1.7-0.9,2.2-2c3.3-7.9,7.1-15.7,9.3-24.1c0.7-2.6,3.3-5.7,1.5-7.6
		c-1.7-1.9-4.8,0.7-7.1,1.5c-17.9,5.5-36.7,7.3-54.6,12.8c-1.9,0.6-4,0.4-5.6,1.8c-5.9,5.2-12.2,10.1-17.7,15.6
		c-16.5,16.6-33.6,32.5-50.9,48.3c-1.4,1.2-2.7,2.5-3.4,4.2c-5.9,14.9-11.4,30-17.8,44.7c-7.3,16.6-12.3,34-21,50
		C83.4,533.5,82.8,536,83.5,538.6z M737.9,352.8c-0.1,1.6,0.2,3.2,0.7,4.8c2.1,5.7,4.2,11.4,6.1,17.1c2.2,6.6,3.8,13.6,12.8,13.9
		c0.1,0,0.2,0.2,0.3,0.3c14.8,5.7,28.7,13.5,43.9,18.5c2.7,0.9,4.9,2.6,6.5,4.6c11.3,14.4,23.4,28.1,35.2,42.1
		c13.8,16.2,27.6,32.4,41.4,48.7c8.2,9.7,16.4,19.4,24.6,29.1c2.1,2.4,4.3,4.7,6.6,7.2c1-1.3,0.4-1.9,0.1-2.6
		c-4.6-11.2-9.2-22.4-13.7-33.7c-3.3-8.2-6.1-16.6-10-24.6c-3.5-7.1-6.9-14.1-7.4-22.1c-0.1-1.3-0.3-2.4-1.5-3.1
		c-2.8-1.8-3.9-4.8-4.6-7.7c-2.4-9.6-8.7-16.6-16.1-22.3c-5.5-4.2-10.8-8.5-15.7-13.4c-5.4-5.4-10.7-11-16.7-15.9
		c-3.3-2.7-6.7-5.4-9.4-8.6c-4.4-5.2-9.5-9.7-14.8-13.9c-7.9-6.3-18-7.2-27.5-9.4C765.2,358.8,751.6,355.9,737.9,352.8z
		 M499.6,178.9c1.7,0,3.4,0,5.1,0c13.2-0.3,26.5,1.3,39.4-3.3c2.8-1,3.8-1.5,2.5-4.6c-1.9-4.6-3.9-9.2-5.7-13.9
		c-8.3-21.8-16.2-43.7-24.3-65.6c-4.3-11.7-9-23.3-12.5-35.3c-0.7-2.3-1.7-3.7-4.5-3.5c-2.8,0.2-3.1,1.8-3.5,3.9
		c-0.5,2.2-1.2,4.5-2,6.6c-5.8,15.5-11.5,31-17.4,46.5c-7.3,19-13.6,38.4-21.4,57.2c-3.2,7.7-3.2,7.7,4.7,10
		c1.8,0.5,3.6,0.9,5.4,1.2C476.8,179.9,488.3,178.3,499.6,178.9z M566.9,176.4c-44.3,13-88.1,12.5-132.3,0.8
		c4.2,17.6,8.2,34,11.9,50.5c0.7,3.2,2.3,4.6,5.4,4.7c6.3,0.2,12.6,0.6,18.9,0.8c26.3,1,52.7-1.1,79-0.7c0.2,0,0.3,0,0.5,0
		c1.9,0.3,2.8-0.6,3.2-2.4C557.6,212.4,561.4,194.8,566.9,176.4z M177.3,375.8c8.2-6.9,15.1-15.9,27.1-16.7c2.1-0.1,2.8-1.5,2.8-3.8
		c-0.4-12.3,0-24.6-0.7-37c-0.1-2.2-0.8-3.3-2.5-4.3c-11.8-7-23.4-14.3-34.5-22.3c-2.5-1.8-4-1.8-6.4-0.5
		c-8.1,4.6-15.3,10.5-23,15.7c-2.3,1.5-5.1,2.7-6.5,4.9c-1.6,2.4,1.3,4.7,1.8,7.3c2.1,10.7,4.5,21.3,6.6,32c0.6,3,2,4.8,4.7,6.1
		C157.4,362.3,167.6,368.7,177.3,375.8z M792.7,337.1c-0.2,0-0.4,0-0.6,0c0,6.2,0.1,12.3,0,18.5c-0.1,2.2,0.4,3.3,2.8,3.8
		c2.8,0.6,5.5,1.7,8.2,2.7c4.8,1.7,8.9,4.4,11.9,8.7c3.8,5.4,5.7,5.7,10.7,2.1c8.9-6.4,18.8-11.1,28.1-16.9c1.7-1.1,2.5-1.9,3-4
		c2.8-12.8,4.9-25.8,9.1-38.3c0.6-1.7-0.1-1.9-1.1-2.6c-7.8-5.5-15.6-11-23.6-16.3c-5.4-3.6-9.2-5.4-15.5-0.4
		c-9.3,7.4-20,13.2-30.2,19.5c-2.1,1.3-2.8,2.8-2.8,5.2C792.8,325.1,792.7,331.1,792.7,337.1z M346.4,962.1c0.4,0,0.7-0.1,1.1-0.1
		c0.2-0.9,0.5-1.7,0.6-2.6c0.7-13.1,1.3-26.2,2.1-39.2c0.8-12.1,1.1-24.4,2.9-36.4c1.4-9.5,4.4-18.8,7.3-28
		c3.2-9.9,4.4-20.4,9.7-29.6c0.9-1.5,0-2.3-0.8-3.2c-9.2-9.7-18.4-19.5-27.7-29.2c-2.4-2.5-3.9-2-4.5,1.5
		c-2.4,15.7-4.9,31.5-7.4,47.2c-1.9,12.1-3.4,24.3-6.5,36.2c-1.1,4.2-2,9.5,0.1,14.3c5.9,14,9.4,28.8,14.7,43
		C341.1,944.5,343.6,953.3,346.4,962.1z M660.9,793.3c-2.1,1.8-4,3.2-5.6,4.7c-7.8,7.2-14,15.9-22.3,22.6c-4.1,3.4-4.9,6.7-1.7,11.1
		c1.6,2.1,1.7,4.7,2.4,7.2c4.2,14.8,9.7,29.4,12.1,44.5c2.8,17.1,2.9,34.6,4,52c0.6,9,1.1,18.1,1.7,27.9c0.7-1.2,1.1-1.5,1.2-1.9
		c6.4-18.8,12.7-37.7,19.3-56.4c3.3-9.4,5.7-18.7,3.1-28.9c-3.6-13.8-5.7-28-7.5-42.1C666,820.5,663.9,807.2,660.9,793.3z M574,126
		c1.3-9.2,0-21.1-5.1-33.1c-4-9.4-8.7-16.1-19.4-17.1c-0.7-0.1-1.4-0.5-2.1-0.8c-7.4-3.1-15.2-6.6-17.6-14.8
		c-2.6-9.3-9.1-8.1-15.7-8.2c-3.8-0.1-4.1,1.1-3.1,4.6c4.8,17.4,13.1,33.4,18.7,50.4c6.5,19.8,14.2,39.1,22.1,58.4
		c2.7,6.7,2.5,6.3,9.6,5.9c5.6-0.3,8.1-3,9.1-8.1c0.3-1.5,0.7-3,1-4.5C573.2,149.1,573.2,139.2,574,126z M426.4,120.4
		c0.5,10.5,1,19.6,1.4,28.7c0.3,5.4,1.3,10.6,2.8,15.9c1.3,4.5,3.2,7.2,8.4,6.7c2.2-0.2,4.8,1.2,6.8,0.7c2.6-0.7,1.7-4,2.5-6.1
		c7.4-18.6,14.7-37.3,21.3-56.3c2.3-6.6,4.7-13.3,7.4-19.8c4.8-11.4,9.1-23,12.7-34.9c0.5-1.6,0.5-2.6-1.8-3
		c-9.8-1.8-12.6-0.7-17.6,7.7c-1.4,2.3-2.5,4.9-3.8,7.3c-1.3,2.5-3.1,4.4-5.9,5.3c-5.3,1.7-10.4,4.1-15.7,5.1c-5,1-8.1,2.8-9.8,7.8
		C431.4,97.4,422.6,108.1,426.4,120.4z M74.9,388.7c-1.6-0.7-3.2-0.2-4,2.3c-1.3,3.9-3.7,7.2-6,10.5c-5.9,8.2-6,17.8-6.6,27.3
		c-0.1,1.4,0.4,2.8,1.5,3.7c7.5,6.7,12,15.6,17.3,23.9c1.7,2.5,2.9,2.5,5.4,1.6c8-2.9,15.6-7.4,24-8.1c5.5-0.5,6.4-3.6,8.1-7
		c0.9-1.8,1.7-3.7,2-5.6c0.7-4.3,2.5-7.7,6.5-9.8c1-0.5,2.8-1.3,1.4-3.6c-5.6-8.9-9.9-18.5-14.4-27.9c-1.6-3.4-4.2-5.1-7.9-5.1
		C93.2,390.9,84.4,390,74.9,388.7z M940.6,424.9c0.8-14.2-7.3-24.8-14.3-35.8c-0.4-0.7-0.9-1-1.9-0.7c-9.9,2.4-20.2,1.7-30.2,3
		c-2.3,0.3-3.2,1.1-4.3,3c-5.3,9.5-9,19.9-15.1,29c-1.3,1.9,0.3,2.7,1,3.3c3.5,3.1,6.5,6.9,7.4,11.1c1.8,7.7,5,12.4,13.6,13.1
		c6.7,0.5,12.5,4.5,18.7,6.8c4,1.5,5.5-0.2,7.3-2.9c3.4-5.2,7.2-10.1,10.3-15.4C935.8,434.7,942.3,431.9,940.6,424.9z M288.5,724
		c-1,0.7-1.3,1.5-1.7,2.4c-7.1,16.4-14.3,32.9-21.4,49.3c-0.7,1.7-0.6,3,0.5,4.7c7.2,10.5,16.9,18.9,24.1,29.4
		c0.9,1.3,2.3,1.2,3.8,1.1c10.2-0.6,20.3-1.4,30.5-1.7c3.8-0.1,5-1.7,5.2-5.1c0.2-4.3,0.3-8.9,2.2-12.7c2.3-4.5,0.8-7.2-2.4-9.9
		c-14.8-12.5-24.7-28.6-33.6-45.5C293.5,731.9,291.9,727.4,288.5,724z M678.6,808.8c8.5,0.6,15.8,1.2,23.2,1.8
		c4.8,0.4,8.9-0.4,10.6-5.8c0.6-1.8,2-3,3.3-4.3c3.7-3.5,7.1-7.2,10.2-11.3c2.8-3.7,7.7-6.8,8.3-10.7c0.6-4-2.8-8.7-4.6-13
		c-5.3-12.6-10.7-25.2-16.1-37.8c-0.5-1.1-0.8-2.6-2.2-2.7c-1.6-0.1-1.7,1.5-2.2,2.5c-4.3,7.8-7.9,15.9-12.6,23.6
		c-5.4,8.8-10.8,17.3-18.8,24.1c-4,3.4-7.7,7-10.9,11.2c-0.7,1-1.7,1.6-0.7,3.1c2,3.2,2.2,7,3,10.6c0.6,2.8,0.2,6.6,1.8,8.4
		C672.8,810.5,676.6,808.4,678.6,808.8z M316.6,884.4c0.4-2.1-0.4-3.4-2.5-4.3c-1.3-0.6-2.5-1.7-3.6-2.7
		c-6.2-5.2-12.4-10.5-18.7-15.7c-5.3-4.3-5.1-3.8-10.9,0.1c-9,6.2-16.5,14.5-26.3,19.5c-2.5,1.3-1.6,3-0.6,4.6
		c5.7,10,11.5,19.9,16.5,30.4c1,2.1,2.5,3.7,4.8,3.8c7.8,0.4,15,3.5,22.5,4.8c3.1,0.6,4.6-0.3,6.6-2.1c5.7-4.9,9.1-12,16-15.7
		c2-1.1,0.2-2.1,0-3C318.8,897.7,314.5,891.7,316.6,884.4z M699.1,926c3.1-0.8,6.3-1.6,9.4-2.4c4.8-1.2,9.4-3.4,14.3-3.3
		c2.5,0,3.7-0.8,4.7-2.6c5-8.9,9.9-17.7,14.8-26.6c1.4-2.5,3.7-5.3,3.5-7.8c-0.3-3.1-4.7-3.2-7.1-5.1c-0.2-0.2-0.4-0.4-0.7-0.6
		c-7.7-5.8-15.5-11.4-23.1-17.3c-2.2-1.7-3.7-1.4-5.7,0.3c-7.4,6.1-14.9,12.1-22.6,17.9c-2.3,1.7-5.3,2.6-4,6.4
		c1.6,4.5,0.3,8.7-1.3,12.9c-3.2,8.2-3.2,8.2,2.8,13.9c0.8,0.7,1.3,1.7,2,2.5c3.4,3.6,6.3,7.5,10.2,10.6
		C697.1,925.3,697.8,926.2,699.1,926z M136.4,354.8c-2.8-12.3-5.7-24.5-8.4-36.8c-0.5-2.4-1.7-1.5-3-0.8c-4.9,2.6-9.4,5.6-13.9,8.9
		c-3.1,2.3-6.5,3.6-8.6,7.6C95,348,86.9,362.2,78.7,376.2c-3.9,6.7-4,6.1,3.8,7.2c7.8,1.1,15.7-0.1,23.3,1.7c1.7,0.4,2.8-0.5,4-1.6
		c8.3-8.7,16.6-17.3,24.9-25.9C135.5,356.8,136.5,356.1,136.4,354.8z M892.8,385.1c3.7-0.3,6.9-0.6,10.1-0.9c5.2-0.6,10.4-1,15.6-1
		c3.3,0,4.7-1.1,2.7-4.6c-4.4-7.6-8.6-15.3-12.9-23c-3.8-6.9-7.3-14.1-11.5-20.7c-5.1-8-14-11.5-21.2-17c-3-2.2-4.5-1.7-5.2,1.9
		c-2.4,11.1-4.8,22.2-7.3,33.3c-0.5,2.2,0.3,3.6,1.8,5.2c7.5,7.7,14.9,15.5,22.4,23.2C888.9,383.1,889.7,386.4,892.8,385.1z
		 M172.3,286.3c0.3,0.2,0.9,0.6,1.5,1c11.8,7.6,23.6,15.1,35.4,22.6c0.8,0.5,2,0.7,3.1,0.7c10.6-0.3,21.2-0.8,31.9-1
		c1.9,0,3-1.1,3.7-2.3c4-7.4,10.5-12.7,16-18.8c2.7-2.9,1.8-5.8-2.2-6.7c-1-0.2-2.1-0.1-3.2-0.1c-23.4-0.4-46.9-0.6-70.3-1.1
		C182.2,280.3,176.5,280.2,172.3,286.3z M827.1,286.2c-4.2-4.7-8.9-5.9-14.7-5.8c-23,0.6-45.9,0.8-68.9,1.2c-2,0-4,0.1-6,0.1
		c-2.2,0.1-3.3,1.7-4.2,3.2c-1,1.6,0.9,2.4,1.7,3.3c4.7,5.4,9.8,10.6,14.3,16.3c3.4,4.3,7.1,5.9,12.6,5.3c4.7-0.5,9.5,0,14.3,0.3
		c8,0.6,15.7,0.6,22.1-5.6c2.3-2.2,5.3-3.6,8-5.3C813.1,294.9,820.1,290.6,827.1,286.2z M108.9,455.2c-9.9,3.5-18.8,6.7-27.7,9.9
		c-1.2,0.4-1.3,1.4-1.6,2.5c-5.6,19.3-11.2,38.5-17,57.7c-2.4,7.8-3.6,16.1-8.9,22.9c-1.5,1.9-1.6,5,0.5,6.8
		c3.2,2.7,14,1.2,16.8-2.4c3.3-4.1,6.5-8.4,5.8-14.3c-0.3-2.9,0.2-5.9,1.5-8.5c5.5-11.5,10.3-23.3,14.9-35.2
		C98.1,481.7,103.4,468.9,108.9,455.2z M746.4,875c-0.2-3.6-0.3-6.4-0.5-9.1c-1.9-22.9-3.3-45.7-4.2-68.6c-0.2-4.3-1.9-7.7-4.2-11.3
		c-6.9,6-11.3,13.7-17.7,19.7c-2.8,2.6-3.5,7.1-7.2,9.1c-0.9,0.5-0.3,1.3-0.3,2c0.8,9.8,1.8,19.6,2.2,29.5c0.2,4.3,1,7.6,5.2,9.7
		c3,1.5,5.4,4.1,8.2,5.8C734.4,865.5,739.1,871.3,746.4,875z M252.9,874.8c2.4-0.2,3.8-1.8,5.1-3.1c6.1-6.1,13.4-10.7,20.3-15.5
		c4.2-2.9,5.6-6.3,5.8-10.9c0.3-6,0.1-12.1,1.4-17.9c1.7-8.1,0.4-14.4-5.8-20.4c-6.6-6.4-12.1-14-18.1-21.1c-2,1.9-2.7,4-3.5,6.2
		c-1.3,3.8-0.6,7.6-0.9,11.5c-1.2,17.8-2.6,35.6-3.6,53.3C253.4,862.8,252.3,868.7,252.9,874.8z M923.1,540.5
		c-0.8,4.5,2.8,7.4,4.2,11.1c2.1,5.3,6.4,4.4,10.8,4c7.7-0.7,8.8-2.2,6.1-9.6c-0.3-0.7-0.5-1.4-0.9-2c-5.6-7.9-6.8-17.5-9.8-26.4
		c-5.5-16.1-9.6-32.7-14.2-49.1c-0.7-2.3-2-3.5-4.2-4.2c-7-2.4-14.2-4.3-20.9-7.4c-2.3-1.1-3.1-0.2-2.6,2.2c0.6,3,2.3,5.6,3.4,8.4
		c8.6,21,17.1,42.1,25.6,63.2C921.9,533.7,924,536.8,923.1,540.5z M885,389.3c-0.3-0.5-0.5-1.3-1-1.8c-8-8.4-16.1-16.8-24.1-25.2
		c-1.1-1.1-2.2-1.4-3.7-0.5c-9.5,5.8-18.9,11.6-28.5,17.2c-2.5,1.5-1.5,2.4-0.2,4c2.2,2.7,5.4,4.3,7.9,6.6
		c10.4,9.3,19.3,20,30.7,28.1c2.5,1.8,3.8,2,5.3-1.2c3.9-8.2,8.3-16.3,12.4-24.4C884.4,391.2,884.6,390.3,885,389.3z M130,421
		c14.3-13.8,29-26.6,42.4-41.1c-9.7-6.2-19.2-12.1-29.1-17.5c-2.1-1.1-3.3-1.1-5,0.7c-4.8,4.8-8.5,10.5-13.9,14.7
		c-3.7,2.8-6.5,6.4-9.6,9.9c-1,1.1-0.9,2-0.3,3.3C119.6,400.8,124.7,410.7,130,421z M515.2,45.6c9.3,0.2,8.7-0.1,11.1-6.7
		c2-5.6,1.5-9.4-3-13.6c-4.4-4.2-7.6-9.5-13.1-12.6c-8.4-4.9-19.5-2.7-25.6,5c-1.6,2.1-3.2,4.2-5.5,5.9c-5.1,3.8-9.3,8.2-5,15.3
		c0.4,0.6,0.6,1.5,0.6,2.2c-0.1,4.3,2.3,4.7,5.9,4.7C492.9,45.7,505,48,515.2,45.6z M324.2,815.4c-9.2,0.5-18.1,1.2-27,1.5
		c-3.1,0.1-4.4,1.3-4.6,4.3c-0.8,9.7-1.6,19.3-2.5,29c-0.1,1.1-0.1,2,0.9,2.9c8.1,6.9,17,12.9,24.6,20.3c1.9,1.8,2.5,0.9,2.8-1.2
		c2.1-18,6.4-35.7,8.3-53.7C327,816.1,326.7,814.8,324.2,815.4z M678,815.3c-2,0.9-6.8-2.3-5.8,4c2.5,17.3,5.4,34.5,8.5,51.7
		c0.5,2.9,1.8,2.8,3.7,1.1c7-6.4,14.7-11.9,22.3-17.5c1.6-1.2,2.1-2.6,2-4.3c-0.7-10.1-1.5-20.3-2.3-30.4c-0.1-1.8-0.7-2.6-2.7-2.7
		C695.2,816.6,686.8,815.9,678,815.3z M212.9,336.4c0.1,0,0.2,0,0.3,0c0,5.5,0.1,11.1,0,16.6c0,2.6,0.7,3.5,3.5,3
		c12.8-2.3,25.5-5.2,38.1-8.7c2-0.6,1.9-1.4,1.3-3c-3.4-8.6-6.8-17.2-10.2-25.7c-0.8-1.9-2-3.2-4.2-2.9c-8.3,1.3-16.6,0.4-24.9,0.8
		c-2.8,0.1-4.1,1-3.9,4.1C213.2,325.9,212.9,331.2,212.9,336.4z M786.1,356.7c0-12.8,0-25.2,0-37.7c0-2.2-0.9-2.5-2.7-2.5
		c-8.9,0-17.8,0-26.8-0.2c-2.3-0.1-3.2,0.8-3.9,2.8c-2.3,6.1-4.7,12.1-7.1,18.2c-3.9,9.9-3.9,9.8,6.8,11.9c0.6,0.1,1.2,0.4,1.8,0.5
		C764.6,352.5,775,354.9,786.1,356.7z M942.2,439.2c-2.2,1.3-3.3,2.7-4.3,4.3c-3.4,5.4-6.7,11-10.5,16.2c-1.7,2.3-3,3.8-2,7.2
		c5.8,18.5,11.2,37,16.8,55.5c1.7,5.7,2.6,11.8,6.5,17.2c0.6-3.8,1.4-7,1.6-10.3c0.3-7.5,3.1-14.8,2.2-22.3
		c-1.5-12.2-3.2-24.3-5.5-36.4C945.1,460.3,945.2,449.7,942.2,439.2z M50.2,540c1.9-1.8,2.2-3.4,2.7-5c6.1-20.7,12.1-41.5,18.6-62.1
		c2.1-6.6,2.1-12.1-2.6-17.4c-2.1-2.4-3.4-5.5-5.2-8.1c-2-3-3.6-6.4-7.1-8.4c-0.4,1.2-0.9,2.2-0.9,3.3c-0.7,10.6-2.9,21.1-4.3,31.6
		c-1.6,11.4-3.8,22.7-4.6,34.2C46,518.5,48.9,528.9,50.2,540z M346.8,980.3c-0.7-3.3-1.3-5.6-1.6-7.8c-0.5-4.7-5.4-6.9-6.4-11.4
		c-2.2-10.2-5.9-19.9-9.2-29.8c-1.7-5.2-3.6-10.4-5.6-15.5c-0.4-1.1-1.1-3.7-2.8-1.4c-3.9,5.2-8.8,9.4-13.3,13.9
		c-1.5,1.5-0.9,2.5-0.2,3.8c5.9,12.6,13,24.7,18.4,37.7c0.4,1,0.9,2,1.6,2.7c3.2,3.4,4.3,7.6,4.9,12c0.7,4.7,2.5,5.6,6.3,2.8
		c2.2-1.6,4.2-3.5,6.3-5.3C346.2,981.3,346.9,980.5,346.8,980.3z M653.1,978.8c0,2.8,0,2.8,5.6,7.2c5.4,4.2,6.7,3.9,8.2-2.9
		c0.8-3.6,1.6-7.2,3.5-10.2c8.1-12.9,14.1-26.9,21.2-40.4c0.9-1.8,0.8-2.8-0.7-4.2c-4.2-4-8.4-8.1-12.3-12.5
		c-2.7-3.1-3.8-1.5-4.4,1.1c-3.6,14.1-9.1,27.5-13.5,41.4c-0.9,2.9-0.9,6.5-3.2,8.3C653.2,970.1,655.6,975.5,653.1,978.8z
		 M264.3,344.5c1.4,0,2.1-0.7,2.5-1.8c0.8-2.5,1.8-4.9,2.5-7.4c2.2-7.5,5.6-14,12.9-18c5.2-2.9,10.2-6.2,15.3-9.2
		c1.1-0.7,3.1-1.2,1-2.7c-7.9-5.7-15.8-11.5-24.5-16c-1.4-0.7-2.3-0.3-3.2,0.8c-5.9,7.6-13.4,13.9-18.6,22.1
		c-0.8,1.3-1.2,2.1-0.5,3.6c3.9,9.1,7.7,18.2,11.4,27.4C263.3,343.9,263.4,344.6,264.3,344.5z M734.7,345.4
		c4.8-9.9,8.8-19.8,12.6-30c0.7-1.9,0.7-3-0.7-4.5c-6.2-6.9-12.3-13.9-18.4-21c-1-1.1-1.9-1.3-3.2-0.7c-9,4.7-17.1,10.7-25.6,16.7
		c3.9,2.5,7.2,5.1,10.9,6.9c11.7,5.8,19.2,14.7,22,27.5C732.7,342.3,733.9,343.6,734.7,345.4z M276.2,926.7c0.6,1.6,0.7,2.4,1.1,3
		c6.3,11.7,12.8,23.4,19,35.2c1.3,2.4,3,4,5.5,5.2c6.1,3,11.9,6.5,17.4,10.4c1.9,1.4,4,2.8,6.6,3c-0.5-3.8-3.2-6.1-4.6-9.1
		c-5.8-12.1-11.7-24.1-17.6-36c-1.4-2.7-2.5-6-5.7-6.8C290.9,929.8,283.8,928.4,276.2,926.7z M674.2,983.7c6.7-4,13.1-8.2,19.9-11.6
		c5.5-2.7,9-6.7,11.5-12.2c3.6-8.1,7.7-16,12.6-23.4c1.9-3,3.4-6.2,5.6-10.3c-8.6,2.2-16.1,4.2-23.7,6.1c-1.2,0.3-1.1,1.4-1.6,2.1
		c-8.7,14.3-14.5,30.1-23.4,44.2C674.2,979.9,673.4,981.5,674.2,983.7z M464.1,35.1c-4.7,0.6-8.8,2.2-12.5,5.4
		c-8.9,7.8-13.2,17.3-12.5,29.1c0.1,2.2,0.5,3.3,2.8,2.5c9.3-3.1,20.2-3.7,23.3-16c0.5-2.1,2.4-3.8,3.6-5.7
		c1.1-1.8-0.9-13.9-2.6-14.9C465.6,35.1,464.7,35.2,464.1,35.1z M560.8,72.3c1.2-5.2-1.1-10.1-0.7-15.1c0.3-3.2-1.2-5.9-3.3-8.2
		c-1.7-1.8-3.8-3.3-5.1-5.3c-3.5-5.4-8.8-7.2-14.5-8.7c-2.4-0.6-3,0.1-3.9,2.3c-4.8,11.9,2.8,25.9,13,30.4
		C550.9,69.8,555.7,71.2,560.8,72.3z"/>
	<path class="st0" d="M244.6,618.5c-2.8-1.5-4.1-6.3-2.2-10c0.8-1.6,1.2-3,1.2-4.7c1.4-0.3,1.3-1.6,1.7-2.5
		c9.5-20.4,19-40.8,28.5-61.2c3.5-7.5,7.5-14.8,10.6-22.9c-4.4,0.8-8.3,1.4-12.1,2.3c-12.7,2.9-25.5,4.8-38.1,8.3
		c-3.5-1.8-3.8-4-0.7-6.5c15.4-3.2,30.8-6.4,46.2-9.7c5.7-1.2,5.8-1.4,3.1-6.8c-12.4-24.8-24.8-49.7-37.2-74.5c-0.5-1-0.7-2.1-2-2.3
		c0-1.8-0.1-3.7-0.1-5.5c0-2.4,1.4-3.2,3.6-3.1c13.5,27.2,27,54.5,40.5,81.7c0.8-2.7,0.8-5.1,1.1-7.5c1.7-16.9,3.5-33.7,5.2-50.6
		c0.4-3.9,2.2-6.8,5.2-9.4c17.7-15.1,35.3-30.4,52.9-45.6c2.5-2.2,4.8-4.5,7.8-7.3c-1.7-0.2-2.4-0.4-3.1-0.3
		c-16.7,1.9-33.3,3.8-49.9,5.8c-17,2.1-34.1,4.3-51.1,6.4c-2.8-0.5-1.8-2.1-1.1-3.7c0.8-1.7,2.4-2.2,3.8-2.9
		c9.2-1.2,18.3-2.4,27.5-3.5c25.4-3.1,50.7-6.3,76.1-9.2c4.4-0.5,3.4-1.9,2-4.4c-9.3-16.8-18.3-33.7-27.7-50.5
		c-3.8-6.8-6.9-14-11.3-20.5c0.4-3.4,1.7-5.4,5.5-3.6c0.2,0.6,0.3,1.2,0.6,1.7c11.9,22,23.8,44.1,35.8,66c0.8,1.5,1.3,3.5,3.2,4.2
		c8.3-30.3,16.7-60.5,24.9-90.7c2.4-9,5.8-17.7,6.9-27.1c0.9-1.4,1.7-2.8,2.8-4.1c1.7-2,3.5-4.3,6.6-1.8c-0.9,1.2-1.6,2.5-2,4
		c-9.1,33.5-18.3,67-27.4,100.6c-1.2,4.6-3.1,9.1-3.5,15.4c5.8-6.1,10.9-11.2,15.7-16.5c27.7-30.4,55.3-60.9,82.9-91.4
		c4.4-4.9,9.4-9.2,12.9-14.9c2.8-0.7,4.9-3.2,8.3-2.9c4.1,0.3,8,0.3,11.3,3c14.5,17.6,30.1,34.2,45.5,51
		c20.7,22.6,41.5,45.1,62.3,67.6c0.8,0.9,1.3,2.6,3.1,2c0.5-1.1,0.1-2.2-0.2-3.2c-8.9-32.8-17.7-65.6-26.9-98.3
		c-1.6-5.8-1.9-12.1-5.6-17.2c3-2.5,4.8-0.2,6.6,1.8c1.1,1.2,1.9,2.7,2.8,4.1c0,0.9-0.1,1.9,0.2,2.7c10.6,38.7,21.2,77.4,31.8,116.3
		c0.5-0.4,0.9-0.7,1.1-1c12.4-22.8,24.9-45.6,37.3-68.3c0.6-1.2,1.9-2.2,0.9-3.8c3.2-0.1,6.3-0.1,6.5,4.4c-2.3,0.4-2.4,2.6-3.3,4.1
		c-11.9,21.8-23.7,43.7-35.5,65.6c-3,5.6-3,5.7,3.4,6.3c26.2,2.3,52.3,6.2,78.4,9.1c7.6,0.9,15,2.6,22.7,2.1c0,0-0.1,0-0.1,0
		c-0.5,0.9,0.4,0.7,0.7,0.9c1.4,0.6,2.9,1,4.1,1.9c0.9,0.6,2.2,1.3,1.9,2.8c-0.3,1.7-1.6,2-3.1,1.9c-12.8-1.5-25.6-3.1-38.4-4.6
		c-15.1-1.8-30.1-3.8-45.3-5.4c-6.9-0.7-13.7-2.3-21.7-2.2c5.3,4.7,9.7,8.7,14.2,12.6c15.6,13.6,31.2,27.1,46.7,40.7
		c2.3,2,4.9,3.8,5.2,7.3c0.6,6.9,1.3,13.8,2,20.7c1.4,13.1,2.8,26.1,4.2,40c14-28.2,27.7-55.7,41.4-83.2c3.5,0,3.7,2.5,3.6,5
		c-0.1,1.3-0.5,2.6-0.8,3.9c-0.2,0.2-0.6,0.3-0.7,0.5c-13.3,26.7-26.6,53.4-39.9,80c-1.2,2.5,0.2,2.9,1.9,3.2
		c16.7,3.3,33.5,6.6,50.2,9.9c4.4,2.8,1.3,4.7-0.8,6.7c-16.8-4.5-34.1-6.8-51.5-10.7c5.1,12.4,10.8,23.8,16,35.4
		c8.1,18,17.1,35.5,25.8,53.3c0.7,3.8,2.6,7.5,1.7,11.6c-0.3,1.6-0.8,3.1-2.7,1.2c-14.8-30.9-27.7-62.7-44.3-93.7
		c-0.7,10.8-1.9,20.7-4.5,30.4c-1.5,5.6-2.8,11.3-3.9,17.1c-3.4,18.2-6.5,36.5-18.5,51.8c-4.3,5.5-7.5,11.8-11.4,18.2
		c1.3,0.2,1.8,0.3,2.4,0.3c16,0.6,32,1.4,48,1.9c8,0.2,16,0,23.9,0c1.7,4,0.9,5.4-3.9,6.4c-22.6-0.6-45.3-1.1-67.9-2
		c-4.4-0.2-4.6,1.1-4.1,4.8c2.3,16.5,4.3,33,6.4,49.5c1.5,12.1,3.1,24.2,4.7,37.3c10.4-11.3,20-21.8,29.7-32.3
		c1.2,0.3,2.1,1.5,1.5,2.3c-2,2.7-1.9,6.5-4.1,8.8c-3.8,4-7.5,8-9.7,13.1c-0.2,0.4-1,0.6-1.5,0.8c-1.1,0.2-2.3,0.4-1.2,2
		c0,0,0,0,0,0c-2.2-1.1-2.7,1.2-3.7,2.1c-14.6,14.5-25.2,32.1-37.1,48.7c-0.1,0.6,0,1.4-0.4,1.7c-7.5,7.6-13.2,16.8-20.6,24.5
		c-6.9,7.2-13.6,14.6-20.8,21.5c-0.6,0.5-1.8,3.8-2.8,0.1c1.3-2.4,2.7-4.7,4-7.2c8.6-16.5,16.3-33.6,25.9-49.4
		c6.5-10.8,6.3-22,6.9-33.6c-1.5-0.1-1.8,0.9-2.4,1.6c-11.4,13.4-22.8,26.7-34.1,40.2c-4.4,5.3-9.6,9.4-16.1,12
		c-11.6,4.7-23.5,8.6-34.6,14.4c-7.6,4-15.9,5.9-24.3,6.4c-9.6,0.6-19,2.4-28.5,4.2c-3.7,0.7-7.5,1.8-11.4,1.2
		c-10.7-1.8-21.5-3.2-32.2-5.4c-5.6-1.1-11.4,0.3-16.8-2.3c-14.3-6.9-29.1-12.6-44-18.2c-5.2-1.9-10.2-4.2-13.9-8.7
		c-7.7-9.2-15.4-18.4-23.2-27.6c-5.3-6.2-10.6-12.4-15.8-18.3c0,6.4,0,12.7,0,19c0,2.1,0.7,3.9,1.6,5.7c5.5,10.5,11,21,16.4,31.5
		c5.7,11.2,11.2,22.5,16.8,33.8c-5.3-1.8-8.3-6.3-11.5-10.2c-6.1-7.2-13.3-13.1-19.1-20.6c-4.2-5.4-7.8-11.3-13-15.8
		c-0.9-2.6-1.9-5-4.8-6.1c0,0,0.1,0.1,0.1,0.1c0-0.4,0.1-0.8,0-1.1c-0.3-0.7-0.7,0-1,0.1c0,0,0.1,0.1,0.1,0.1c0.4-0.2,0.8-0.5,0.5-1
		c-9.1-14-18.8-27.7-30.4-39.8c-0.6-0.7-1.4-1.4-2,0l-0.3-0.1c0,0-0.1-0.3-0.1-0.3c2-1.6,0.1-1.8-0.8-2.4c-0.3-0.1-0.8,0-0.9-0.2
		c-3.7-7.7-11.2-12.9-14.1-21.3c-0.5-1.5-1.5-2.9,0.8-3.7C298,721,307.5,730,316.5,740c0.4-1.3,0.7-2,0.8-2.7c3.5-28,7-56,10.6-83.9
		c0.5-4.1-0.9-4.8-4.7-4.7c-22.2,0.9-44.4,1.5-66.6,2.2c-4.3-0.9-5.7-3.1-4.5-6.9c1.5,1.3,3.2,0.9,4.9,0.8
		c15.4-0.4,30.8-0.6,46.2-1.3c7.6-0.3,15.1-0.9,23.6-0.9c-6.2-9.7-11.7-18.3-17.3-27c-3.6-5.6-6.2-11.5-8-18
		c-3.3-12-4.1-24.5-7.4-36.5c-3.2-11.6-5.4-23.6-5.9-35.7c-1.3,0.2-1.2,1.2-1.5,1.8c-10.8,21.1-20.6,42.6-30.3,64.2
		C252.3,600.5,247.1,608.9,244.6,618.5z M556.9,503.1c-0.4-0.3-0.9-0.8-1.3-0.1c-0.1,0.1,0.4,0.6,0.6,0.8c0.3,0.4,0.5,0.7,0.8,1.1
		c0.1,0.4,0.2,0.9,0.4,1.3c10.3,17.4,20.6,34.9,31,52.3c0.9,1.6,2.2,3.1,3.6,4.2c18.3,13.8,36.6,27.6,54.9,41.4
		c2.9,2.2,6.1,2.5,9.6,2c9.5-1.3,19.1-2.9,28.6-3.6c3.9-0.3,5.3-1.7,6.2-5.1c2.8-11.1,4.2-22.6,7.8-33.6c1.5-4.4,2-9.2,3-14.3
		c-10.5,2.2-20.3,4.5-29.5,8.7c-2.3,1-4.9,1.8-7.1,1c-14.3-5.1-30.1-2.9-44.3-8.5c-0.8-0.3-1.8-0.2-2.8-0.1
		c-5.9,0.6-10.3-2.2-14.4-5.9c-15.3-13.6-30.7-27.1-46.1-40.7C557.6,503.7,557.3,503.4,556.9,503.1z M630.7,753.8
		c0.4-0.1,0.9-0.2,0.5-0.8c-0.1-0.1-0.7,0.1-1.1,0.2c-0.3,0.2-0.6,0.5-1,0.7c-14.7,10.7-29.4,21.3-44,32.1c-3.2,2.3-6.5,4-10.2,5
		c-3,0.7-5.9,1.6-8.8,2.5c-20.7,6.2-40.7,15.9-63.3,14.1c-0.7-0.1-1.5,0.3-2.3,0.4c-7.5,1-15,0.7-22.4-1.2
		c-7.3-1.9-14.7-3.6-21.9-5.9c-17.6-5.8-36-9.1-51.2-21.2c-10.8-8.6-22.4-16.2-33.6-24.3c-0.3-0.3-0.7-0.5-1-0.8
		c-0.4-0.7-1.1-1.2-1.5-0.4c-0.4,0.7,0.6,1,1.1,1.4c0.1,0.2,0.3,0.3,0.4,0.4c4.2,5.1,8.6,10.1,12.6,15.4
		c8.9,11.7,19.3,20.5,33.8,25.7c18.2,6.5,35.5,15.3,55.1,16.6c6.3,0.4,12.2,2.8,18.5,3.2c15.9,1,31.5-2,47-4.8
		c8.1-1.5,16.2-2.1,23.9-5.9c12.1-6,24.4-11.7,37.1-16.3c1.9-0.7,3.6-1.8,4.9-3.3c8.8-10.5,17.6-21,26.4-31.6
		C630.1,754.5,630.4,754.1,630.7,753.8z M364.9,804.5c-0.1-0.5-0.2-0.9-0.4-1.4c-5.5-10.8-11.1-21.5-16.7-32.3
		c-1.5-2.9-2.3-5.9-2.6-9.2c-1.2-12,0.4-24.2-2.1-35.9c-3.5-17-5.8-34.3-9.4-51.3c-0.5-2.3,0.5-5-1.8-7c-0.1,1.3,0,2.5-0.2,3.7
		c-2.2,12.5-3.1,25.2-4.8,37.7c-1.1,8.5-1.7,17.1-3.2,25.6c-1.4,7.8-1.4,14.8,4.7,20.9c2.5,2.5,4.3,5.6,6.4,8.4
		c9.7,13.3,19.3,26.6,28.9,39.9c0.2,0.4,0.4,0.9,0.6,1.3c0.4,0.3,0.4,1.7,1.3,1C366.2,805.6,365.6,804.8,364.9,804.5z M369.8,487.3
		c-2,1.6-4,3.4-6.1,4.9c-2.1,1.5-1.9,2.7-0.1,4.3c2.8,2.3,5.5,4.8,8.2,7.3c-2-5.2-3.1-10.3-1.3-15.7c0.7-0.2,1-1,0.6-1.4
		C370.4,486,370.2,487,369.8,487.3z M628.9,487c-0.4,0-1-0.2-1.1,0c-0.4,0.6,0,1,0.6,1.3c3.2,5.4,0,10.2-1.9,15.7
		c2-1.6,3.6-2.5,4.9-3.8c7.9-7.5,7.8-4.5,0-11.3C630.7,488.2,629.8,487.6,628.9,487z M632.7,806.1c1.7,1.5,2-0.5,2.5-1.2
		c13.3-18.3,26.5-36.7,39.7-55c1.6-2.2,2.4-4.7,1.9-7.3c-1.1-6-1.6-12.1-2.3-18.2c-1.3-11.7-2.9-23.4-4.4-35.1
		c-0.9-6.6-1.7-13.3-2.6-20.2c-1.4,1-1.4,2.1-1.6,3.1c-1.1,6.7-2.1,13.4-3.3,20.1c-3.9,23.2-9.8,46.1-8.3,69.9
		c0.1,1.6-0.2,3.5-0.9,4.9c-6.8,13-12.9,26.4-20.6,38.9c0,0.6-0.1,1.2-0.1,1.8c0.2-0.1,0.6-0.1,0.7-0.2
		C633.6,806.9,633.9,806.2,632.7,806.1z M525.5,522.9c17.5-17.8,35.7-34.9,56.2-49.3c1.9-1.3,3.6-3,6-3.2c7.5-0.6,15.1-1.1,22.6-1.7
		c4.1-0.4,7.4,0.9,10.5,3.6c5.8,5.1,11.9,9.8,17.7,14.8c3,2.6,5.5,3.4,9.4,1.3c7.6-4.1,15.5-7.5,23.3-11.2c2.4-1.1,5.1-1.6,8-4.1
		c-12.3,0.7-22.4-3.5-32.6-7.8c-10.8-4.5-21.6-8.8-32.2-13.5c-4-1.7-8-2.2-12.1-1.7c-7,0.9-14.1,1.6-21.2,1.9
		c-4.1,0.2-7.6,1.6-10.9,4.4c-9.3,8.1-19,15.7-28.2,23.9c-4.2,3.7-9.9,6.3-11.2,12.5c-2.1,9.8-4,19.6-6,29.4
		c-0.6,0.4-0.9,1.1-0.5,1.5C524.9,524.1,525.1,523.1,525.5,522.9z M585.5,518.2c-0.9-0.6-1.8-0.9-2.9-0.3c0.6,0.4,1.2,0.9,1.7,1.3
		c8.2,7.3,16.4,14.5,24.4,21.9c2.6,2.4,5.7,3.8,9,4.3c14.3,2,28.4,5.3,42.7,6.9c4.5,0.5,8.9,0.6,13.3-0.5c8.9-2.2,17.7-4.8,26.3-8.1
		c1.7-0.6,3.1-1.2,3.2-3.3c0.7-10.6,3-21.1,2.1-31.8c-0.9-10.7-1.9-21.5-3.1-32.2c-0.3-3.2,0-6.7-2-10.6c-6.2,8.3-15,11.8-23.5,15.4
		c-20.5,8.7-39.7,19.3-55.2,35.7c-1.3,1.4-2.9,2.5-4.8,2.3C606.4,518.2,595.9,520.5,585.5,518.2z M502.2,742.7
		c0,18.8,0.1,37.6-0.1,56.5c0,3.2,0.9,4.1,3.9,3.8c4.8-0.4,9.5-0.9,14.1-2c16.7-4.1,32.9-10.1,49.5-14.5c4.5-1.2,8.7-2.8,12.5-5.6
		c21.1-15.4,42.2-30.9,63.4-46.2c2.4-1.7,2.9-3.3,2.2-6.1c-4.6-18.3-8.8-36.8-13.6-55c-2.1-7.8-2.3-16.2-7-23.1
		c-6.3-9.4-12.8-18.8-19.1-28.3c-1.8-2.7-2.8-3.3-5-0.1c-9.7,14.2-19.9,28.2-29.6,42.4c-3.2,4.7-7.2,7.3-12.8,7.7
		c-1.4,0.1-2.7,0.3-4.1,0.6c-16.8,3.1-33.5,6.2-50.3,9.2c-3,0.5-4.1,1.8-4.1,4.9C502.2,705.3,502.2,724,502.2,742.7z M394,618.8
		c-5.9,8.3-11.3,16.4-17.1,24c-4.1,5.4-6.9,11.1-8.4,17.6c-5.5,22.7-11.1,45.3-16.7,67.9c-0.8,3.3,0.4,5.1,2.9,7
		c17.8,12.8,35.8,25.5,53.3,38.8c10.6,8,22,13.9,35.1,16.5c4,0.8,8,2.2,12,3.4c11.5,3.5,22.6,8.3,35,8.6c6.3,0.1,7,0.2,7-6.1
		c0-36.5,0-73.1,0.1-109.6c0-2.7-0.5-4.2-3.4-4.7c-18-3.3-35.9-7-53.9-9.9c-6.1-1-10.4-3.1-13.9-8.3
		C415.6,649,404.9,634.3,394,618.8z M500.4,676.1c2.1-0.1,5,0.2,7.6-0.4c15.5-3.6,31.3-5.9,46.9-8.9c4.1-0.8,9.3,0.1,12.2-4.2
		c10.7-15.1,21.2-30.2,31.9-45.3c1.5-2.2,2.4-4.4,0.8-6.8c-5.9-8.7-11.8-17.3-17.8-25.9c-0.7-1-1.8-1.7-2.8-2.4
		c-14.9-9.5-29.8-19-44.7-28.6c-2.9-1.8-5.5-2-8.7-0.8c-7.5,2.9-15.2,5.4-22.8,8.2c-2.3,0.8-4.2,1-6.6,0.1c-8-3-16.1-5.6-24.1-8.5
		c-2.6-0.9-4.7-0.9-7.2,0.7c-14.3,9.3-28.7,18.4-43.1,27.5c-2.2,1.4-4.3,3-5.8,5.2c-5.4,7.8-10.9,15.7-16.3,23.5
		c-1.7,2.4-1.8,4.7,0,7.2c10.4,14.7,20.7,29.5,31.1,44.2c1.8,2.6,4.3,4.6,7.5,4.8c11,1,21.6,4.6,32.6,5.7
		C480.8,672.6,490,676.1,500.4,676.1z M698.9,450.7c0.9-7-1.5-11.7-6.3-15.8c-20.7-17.8-41.2-35.7-61.8-53.6
		c-2.2-1.9-4.6-2.8-7.5-2.9c-14.6-0.8-29.2-2-43.8-2.7c-7.3-0.4-14.7-2.3-22.1-0.5c-16.7,3.9-33.4,8-50.1,11.6
		c-4.3,0.9-5.3,2.8-5.3,6.9c0.2,23.3,0.1,46.6,0.1,69.8c0,22,0,44.1,0,66.1c0,1.9-0.7,4.6,2.6,4c3.6-0.7,7.1-1.9,10.7-2.8
		c1.3-0.3,1.6-1.3,1.7-2.4c0.8-9.1,4-17.7,5.3-26.7c1.2-8.6,3.6-16.5,10.9-22c4.8-3.6,9.4-7.5,14-11.4c5.5-4.6,10.9-9.4,17.4-15
		c-6,1.4-10.5,1.6-14.8-1.1c-7.2-4.5-14.5-8.6-21.8-13c-5.1-3.1-5.2-4.2-1.1-8.2c7.9-7.7,16-15.4,24-23.1c3.4-3.2,7.6-4.6,12.2-4.8
		c10.3-0.4,20.5-1.5,30.8-2.7c8.7-1,17.1-1.1,25.5,3.1c10.9,5.5,22.4,9.9,33.8,14.1c8.8,3.2,16.7,7.2,23.5,13.8
		C683.7,438,691.3,444,698.9,450.7z M300.2,451c8.2-7.3,16.1-14.1,23.9-21.1c4.2-3.7,8.4-7.3,13.7-9.3c15-5.7,29.8-12,44.5-18.3
		c4.5-1.9,9.2-3.7,14.3-3.1c13.9,1.9,27.8,2.8,41.8,3.9c4,0.3,7.4,1.9,10.3,4.7c8,7.8,16,15.4,23.9,23.2c3.6,3.6,3.4,5-1,7.7
		c-5.3,3.2-10.7,6.2-15.9,9.4c-6.2,3.8-12.2,8-20.2,5.4c11.1,9.7,22.2,19,33.3,28.2c2.8,2.3,5.5,5,6,8.5c1.3,10.1,4.9,19.7,5.7,29.8
		c0.7,7.9,3.8,12,11.9,13c3.6,0.4,4.7,0.3,4.6-3.5c-0.2-10.3-0.1-20.7-0.1-31c0-35.6,0-71.3,0-106.9c0-1.8,0.9-4-2.2-4.6
		c-12.3-2.7-24.4-5.9-36.7-8.4c-8.5-1.7-16.8-5.2-25.8-4.2c-15.5,1.8-31,2.9-46.6,3.3c-9.3,0.2-17.4,3.2-24.3,9.6
		c-17.5,16.5-36.2,31.7-54.3,47.5C302.2,439.1,299,443.8,300.2,451z M502.7,242.3c-0.3,0.9-0.5,1.4-0.5,1.8c0,44.6,0,89.2-0.1,133.7
		c0,3.1,1.2,3.3,3.6,2.7c8.5-2,17.2-3.5,25.6-6c19.2-5.6,38.4-6.9,58.3-4.5c10,1.2,20.3,2,30.9,1.1
		C581.7,327.8,542.5,285.1,502.7,242.3z M378.3,371.5c2.1,1.3,3.4-0.1,4.8-0.2c15.5-0.3,31-1.6,46.5-2.6c4.7-0.3,9.5-0.6,14.2,0.5
		c16.3,3.9,32.5,7.6,48.8,11.4c2.5,0.6,4.3,1.2,4.2-2.8c-0.1-43.8-0.1-87.6-0.1-131.3c0-1.1,0.6-2.5-1.2-3.4
		C456.6,285.7,417.5,328.5,378.3,371.5z M298.5,465.3c-0.6,4.8-1.1,8.7-1.6,12.6c-2.4,20.1-4.8,40.1-1.3,60.3c0.5,3,1,4.9,4.7,5.5
		c6.1,1.1,12,3.4,17.8,5.8c8.3,3.4,16.8,4.2,26.1,2.2c9.1-1.9,18.2-4.4,27.6-4.6c5.6-0.2,11.8-0.7,16.2-4.2
		c9.8-7.9,19-16.5,27.3-23.8c-7,0-15-0.6-22.9,0.2c-8.5,0.8-14.9-1.8-21-7.7c-7.9-7.6-15.7-15.4-26.4-19.7
		c-9.5-3.8-18.6-8.7-27.9-13C310.3,475.6,303.8,471.9,298.5,465.3z M684.6,467.5c4.9,1.7,7.9-2.2,11.5-5.5c2.7-2.5,2.4-4.1-0.1-6.3
		c-6.3-5.4-12.6-10.9-18.9-16.3c-5.9-5.1-11.2-10.7-18.9-13.7c-15.9-6.1-31.6-12.9-47.3-19.5c-1.9-0.8-3.8-1-5.8-0.8
		c-12.6,1.1-25.1,2-37.7,3.3c-4.1,0.4-8.6-0.4-12.2,3.2c-6.8,6.7-13.8,13.3-20.7,19.8c-2,1.9-1.9,3,0.6,4.4
		c5.8,3.2,11.4,6.6,17.1,10c2.2,1.3,4.6,1.6,7.1,1.5c14.9-0.9,29.8-2.1,44.7-4c3.5-0.5,6.7-0.1,9.9,1.3c9.4,4.1,18.9,8,28.3,12.3
		C655.4,463.1,669.1,467.2,684.6,467.5z M396.3,405.7c-4.3,0.1-8.3,0.6-12,2.3c-14.3,6.5-29,12.1-43.6,17.9c-2.4,1-4.9,1.8-7,3.5
		c-10.5,9.1-21,18.2-31.4,27.3c-0.8,0.7-2.1,1.8-1.3,2.6c3.2,2.9,5.4,8.2,10.1,8.1c9.9-0.2,20.1-0.1,29.6-3.8
		c13.5-5.4,26.9-11.2,40.3-17c6.1-2.7,12.3-3.6,19-2.8c7.7,0.9,15.4,1.1,23,2.5c14,2.6,26.8,0.8,38.1-8.4c0.9-0.8,2.1-1.2,3.2-1.7
		c2.8-1.3,2.8-2.4,0.5-4.5c-7-6.5-13.9-13.1-20.8-19.8c-1.3-1.2-2.7-2.1-4.4-2.3C425.1,408.2,410.5,406.9,396.3,405.7z M443.9,503.3
		c-0.3-0.2-0.6-0.5-0.8-0.7c-0.5,0.3-1,0.7-1.5,1.1c-16.3,14.4-32.5,28.9-48.8,43.3c-2.1,1.9-4.4,3.3-7.3,3.6
		c-13.7,1.6-27.3,3.9-40.8,6.6c-5.4,1.1-10.9,3.5-16.6,1.1c-8.8-3.6-18.1-5.4-27.3-7.8c-1.1-0.3-2.3-1.6-3.4-0.6
		c-1,1,0.1,2.3,0.3,3.4c2.8,15.4,8.3,30.2,10.2,45.7c0.3,2.1,1.1,2.6,3.1,3c10.1,1.7,20.4,1.9,30.5,4.1c3.6,0.8,7.4,0.9,11-2
		c17.4-13.4,35.1-26.4,52.7-39.6c2.5-1.9,4.3-4.3,5.9-7c5.7-9.5,11.5-18.9,17.2-28.4C433.6,520.6,438.7,511.9,443.9,503.3z
		 M644,609.1c-13.4-9.9-26-19.2-38.6-28.5c-10.4-7.7-20.9-15.3-27.2-27.1c-7.8-14.7-16.9-28.6-25.3-42.9c-1.8-3-3.1-3-5.4-0.6
		c-6.5,6.6-13.2,12.9-19.8,19.4c-4.2,4.2-9.1,7.5-14.9,8.6c-12.6,2.4-10.2,2-10.6,13c-0.1,3.5,1.4,3.5,3.9,2.7
		c5.8-2.1,11.7-3.9,17.3-6.3c5.5-2.4,10.1-1.7,15,1.6c11,7.4,22,14.6,33.4,21.4c9.7,5.8,17.5,13.2,23.5,22.9
		c5.8,9.6,12.6,18.6,19,27.8c1,1.4,1.9,3.6,4.3,2.2C626.8,618.6,635.1,614,644,609.1z M496.9,548.1c0-7.4,0-7.4-7.4-9.3
		c-7.2-1.8-13.6-4.7-18.8-10.6c-5.8-6.5-12.6-12.2-18.8-18.5c-2.7-2.7-3.8-2.2-5.6,0.9c-9.1,15.6-18.4,31-27.6,46.5
		c-3.2,5.5-7.1,10.3-12.4,14.1c-16,11.7-31.9,23.7-47.9,35.4c-2.7,2-3,2.9,0.2,4.5c6.7,3.4,13.3,7,19.8,10.9c3.3,1.9,5,1.4,7.1-1.7
		c7.9-11.8,15.9-23.4,23.9-35.1c2.2-3.2,4.4-6.3,7.8-8.4c15.8-10,31.7-20.1,47.5-30.1c2.3-1.5,4.4-1.6,7-0.7
		c6.3,2.3,12.8,4.4,19.1,6.6C496.9,554.7,496.9,554.7,496.9,548.1z M474.6,523.7c0.2-1,0.4-1.4,0.3-1.8c-2.1-9.9-4.2-19.8-6.4-29.8
		c-0.5-2.4-2-4.1-3.8-5.6c-8.8-7.5-18-14.5-26.3-22.5c-8.1-7.8-16.6-12.5-28.3-13c-12.5-0.6-24.7-2-35.9,5.4
		c-0.6,0.4-1.4,0.6-2.1,0.9c-12.4,4.4-23.8,11.2-36.7,14.5c-4.8,1.2-10-0.6-14.6,1.9c10.4,5,20.8,10,31.1,15c3,1.4,5.6,1,8.1-1.1
		c5.8-4.8,11.9-9.3,17.4-14.5c4.4-4.1,9.2-5,14.9-4.3c5.8,0.7,11.6,1.1,17.5,1.4c2.3,0.1,4.2,0.8,5.9,2.1
		c14.9,11.2,30,22.1,42.9,35.8C463.6,513.4,469,518.3,474.6,523.7z M347.8,718.6c3.1-12.4,6-24.2,8.9-36
		c4.3-17.9,7.3-36.2,20.7-50.4c2-2.1,0.9-3.7-1.4-4.9c-8-4.3-15.8-8.7-23.8-13c-4.1-2.2-8.6-2.9-13.2-3.2c-7-0.5-14-0.6-20.9-2.6
		c-1.6-0.4-3.3-0.7-5.3,0.4c5.2,8.4,10.3,16.8,15.6,25c3.7,5.7,7.1,11.6,8.4,18.3c0.8,4.2,0.9,8.6,1.6,12.8
		C341.3,682.7,344.5,700.4,347.8,718.6z M687,608.5c-8.8,1-16.7,2-24.6,2.7c-6.9,0.6-13.6,1.6-19.7,5.5c-5.3,3.4-11,6.1-16.5,9.1
		c-6.3,3.4-6.1,3.3-2.2,9.1c4,6,9.4,11.4,11.3,18.3c5.7,21.5,10.8,43.1,16.2,65.1c3.7-19.5,7.6-38.5,9.9-57.8
		c1.3-10.4,4.7-19.8,11-28.4C677.7,624.9,681.9,616.8,687,608.5z M603.1,512.3c3.4,0,6.8,0,10.2,0c1.3,0,2.9,0.5,3.6-1.2
		c2.2-5.5,4.5-11.1,6.6-16.7c0.4-1,0-2.1-0.5-3.1c-2.8-4.9-5.6-9.9-8.4-14.8c-0.9-1.6-2-1.9-4.1-1.8c-5.8,0.5-11.6,1.7-17.4,1.2
		c-3.5-0.3-6.1,1.4-7.5,4.3c-1.8,3.6-4.1,6.8-6.6,9.9c-1.5,1.9-1.8,3.9-0.8,6C585.6,512,585.6,512,603.1,512.3z M398.2,512.2
		c2.2,0,5.3-0.3,8.3,0.1c4.4,0.5,6.9-1.1,8.5-5.1c1.2-3,2.9-5.7,4.5-8.5c3.6-6.5-5.4-22.4-12.9-22.6c-0.8,0-1.5,0-2.3,0
		c-3.7-0.2-7.3,0.1-11-0.8c-4.9-1.2-9-0.1-10.9,5.5c-0.8,2.3-2.1,4.5-3.6,6.4c-3.5,4.2-3.3,8.2-1.1,13.1
		C383.5,512.8,383.3,512.9,398.2,512.2z M427.8,489.8c3.2,6.7-4.2,10.2-4.4,16.3c2.6-1.5,4.9-2.8,7.1-4.1c8-4.6,8-4.6,0.9-10.1
		C430.5,491.2,429.9,490,427.8,489.8z M576.3,506.3c-1.7-6-6.5-9.7-6-16c-3.1,2.2-5.7,4-8.3,5.9c-0.9,0.7-1.3,1.3-0.1,2
		C566.5,500.7,571,503.3,576.3,506.3z M621.3,361.6c-0.1-0.1-0.2-0.3-0.3-0.3c-0.2,0-0.4,0.2-0.6,0.3c0.1,0.1,0.2,0.3,0.3,0.3
		C620.9,361.9,621.1,361.7,621.3,361.6z M378.5,362.3c-0.1-0.1-0.2-0.2-0.3-0.2c-0.4,0.2-0.5,0.4,0,0.6c0.1,0,0.2-0.1,0.3-0.2
		C378.5,362.6,378.5,362.4,378.5,362.3z M627.4,486c0.1-0.1,0.2-0.2,0.3-0.3c-0.2-0.1-0.4-0.2-0.6-0.3c-0.1,0-0.2,0.2-0.3,0.2
		C627,485.8,627.2,485.9,627.4,486z"/>
	<path class="st1" d="M303.8,736.1c0.9,0.6,2.8,0.8,0.8,2.4C303.9,737.8,303.5,737.1,303.8,736.1z"/>
	<path class="st0" d="M741.5,386.1c-0.4-0.2-1.2-0.1-0.7-0.9C741.7,384.9,741.4,385.6,741.5,386.1z"/>
	<path class="st0" d="M584.4,519.1c-0.6-0.4-1.2-0.9-1.7-1.3c1-0.6,2-0.3,2.9,0.3C585.1,518.5,584.8,518.8,584.4,519.1z"/>
	<path class="st1" d="M370,755.4c-0.5-0.4-1.5-0.7-1.1-1.4c0.5-0.8,1.2-0.2,1.5,0.4C370.3,754.8,370.2,755.1,370,755.4z"/>
	<path class="st0" d="M525.5,522.9c-0.4,0.2-0.6,1.3-1.3,0.6c-0.4-0.4-0.1-1.1,0.5-1.5C525,522.3,525.3,522.6,525.5,522.9z"/>
	<path class="st0" d="M369.8,487.3c0.4-0.3,0.6-1.2,1.2-0.6c0.4,0.4,0.2,1.1-0.6,1.4C370.3,487.8,370,487.5,369.8,487.3z"/>
	<path class="st0" d="M621.3,361.6c-0.2,0.1-0.4,0.2-0.6,0.3c-0.1,0-0.2-0.2-0.3-0.3c0.2-0.1,0.4-0.2,0.6-0.3
		C621.1,361.3,621.2,361.5,621.3,361.6z"/>
	<path class="st1" d="M630.1,753.2c0.4-0.1,1-0.3,1.1-0.2c0.3,0.5-0.1,0.7-0.5,0.8C630.5,753.6,630.3,753.4,630.1,753.2z"/>
	<path class="st1" d="M629.2,753.9c0.3-0.2,0.6-0.5,1-0.7c0.2,0.2,0.4,0.4,0.5,0.5c-0.3,0.4-0.5,0.7-0.8,1.1
		C629.6,754.5,629.4,754.2,629.2,753.9z"/>
	<path class="st1" d="M370.5,755.9c-0.2-0.1-0.3-0.3-0.4-0.4c0.2-0.3,0.3-0.6,0.5-1c0.3,0.3,0.7,0.5,1,0.8
		C371.2,755.5,370.8,755.7,370.5,755.9z"/>
	<path class="st0" d="M628.4,488.2c-0.6-0.3-0.9-0.7-0.6-1.3c0.1-0.1,0.7,0,1.1,0C628.8,487.4,628.6,487.8,628.4,488.2z"/>
	<path class="st0" d="M378.5,362.3c0,0.1,0,0.3,0,0.3c-0.1,0.1-0.2,0.2-0.3,0.2c-0.4-0.2-0.4-0.4,0-0.6
		C378.2,362.1,378.4,362.3,378.5,362.3z"/>
	<path class="st0" d="M627.4,486c-0.2-0.1-0.3-0.2-0.5-0.3c0.1-0.1,0.2-0.3,0.3-0.2c0.2,0,0.4,0.2,0.6,0.3
		C627.6,485.8,627.5,485.9,627.4,486z"/>
	<path class="st0" d="M557.1,505c-0.3-0.4-0.5-0.7-0.8-1.1c0.2-0.3,0.4-0.5,0.7-0.8c0.3,0.3,0.6,0.6,0.9,0.9
		C557.6,504.3,557.3,504.6,557.1,505z"/>
	<path class="st0" d="M556.3,503.9c-0.2-0.3-0.7-0.7-0.6-0.8c0.4-0.8,0.9-0.2,1.3,0.1C556.7,503.4,556.5,503.6,556.3,503.9z"/>
	<path class="st0" d="M460.6,579.1c2,0.6,3,1.9,2.3,4.4c-1.2,4-2,8-3.3,12c-1.2,4-0.7,7.5,0.5,11.5c2.7,9.9,9.2,16,18.1,19.5
		c9.2,3.6,13.7,10.5,16.2,19.2c0.8,2.8,4.1,6.3,0,8.5c-3.3,1.8-5.6-1.9-7.5-4c-5.8-6.2-13.7-6.1-21.1-7.8c-3.8-0.9-8.7,0.1-10.9-3.8
		c-3.4-6.1-7.8-12.1-6.3-20c2.3-11.9,4.8-23.7,8.2-35.3C457.3,581.6,457.6,579.2,460.6,579.1z M485.1,640.8c0.1,0.4,0.3,0.8,0.7,0.5
		c0.1-0.1-0.1-0.7-0.1-1c-2-5.6-7.5-7-12-9.2c-7.9-4-14.8-8.6-17.8-17.7c-1.9,6.3-0.8,12,1.4,17.7c1,2.5,2.3,3.8,5.1,4.4
		C470.1,637.1,478,637.4,485.1,640.8z"/>
	<path class="st0" d="M551.5,621.5c0.2,10.5-7.4,19.7-17,20.9c-9.4,1.2-18.5,3-25.4,10.5c-1.1,1.2-2.7,2.8-4.8,1.2
		c-2.1-1.6-1.4-3.4-0.6-5.3c0.1-0.1,0.1-0.3,0.2-0.4c5.9-15.5,5.6-16.1,21.9-24.3c9.4-4.7,12.1-12.8,14.6-21.1
		c1.8-6-2.2-12.2-3.8-18.2c-0.6-2.4-1.1-4.3,1.5-5.3c2.9-1.1,3.8,1.3,4.4,3.3c3.6,11.3,5.2,23,7.9,34.5
		C550.9,618.8,551.3,620.4,551.5,621.5z M512.8,642.5c2.9-2.5,5.1-3.8,7.9-4.2c5-0.7,10-1.6,15-2.4c1.9-0.3,3.7-0.6,5-2.1
		c4-4.8,5.1-14.2,2.3-20.5c-2,5.2-3.5,10.3-8.9,13c-5.1,2.5-10,5.4-14.9,8.2C516.4,636.1,514,638,512.8,642.5z"/>
	<path class="st0" d="M599.2,503.8c-3.3-1.5-7.5-3.2-10.4-6.6c-1.8-2.1,0.8-9.2,3.8-12c6.8-6.1,10.8-6.3,18.3-0.6
		c0.8,0.6,1.7,1.6,1.9,2.5C614.6,494.2,607.1,504,599.2,503.8z M606.3,490.5c-0.8-2-2.7-3.9-5.3-3.7c-3.5,0.3-5.5,3.3-5.8,6.3
		c-0.3,3,2.9,3.6,5.3,3.9C603.4,497.4,606.4,494.1,606.3,490.5z"/>
	<path class="st0" d="M399.7,504.1c-5.1-0.8-8.7-3.3-10.7-7.5c-1.2-2.4-1.8-5.1-2.6-7.7c-0.2-0.6-0.3-1.2-0.1-1.8
		c1-3.8,13-8.1,16.3-5.8c4.3,3.1,7,7.2,8.3,12.3c0.3,1.2,0.5,2.6-0.4,3.5C407.3,500.3,403.5,502.5,399.7,504.1z M397.5,486.8
		c-1.6,0.8-4.6,1.2-4.2,4.4c0.4,3.2,2.1,6,5.9,5.8c2.4-0.1,4.6-1.1,4.7-4C403.9,490.4,400.4,486.7,397.5,486.8z"/>
	<path class="st0" d="M485.7,640.3c0.1,0.4,0.3,0.9,0.1,1c-0.5,0.3-0.6-0.1-0.7-0.5C485.3,640.6,485.5,640.4,485.7,640.3z"/>
</g>
</svg>
